<?xml version="1.0" standalone="no"?>
<!DOCTYPE svg PUBLIC "-//W3C//DTD SVG 20010904//EN"
 "http://www.w3.org/TR/2001/REC-SVG-20010904/DTD/svg10.dtd">
<svg version="1.0" xmlns="http://www.w3.org/2000/svg"
 width="241.000000pt" height="243.000000pt" viewBox="0 0 241.000000 243.000000"
 preserveAspectRatio="xMidYMid meet">
<metadata>
Created by potrace 1.16, written by Peter Selinger 2001-2019
</metadata>
<g transform="translate(0.000000,243.000000) scale(0.100000,-0.100000)"
fill="#000000" stroke="none">
<path d="M1019 1794 c-107 -19 -231 -60 -324 -106 -117 -59 -115 -56 -115
-160 0 -60 -4 -88 -12 -88 -6 0 -57 23 -112 50 l-101 50 48 -42 c27 -24 78
-61 115 -84 64 -39 67 -43 70 -83 2 -22 1 -41 -3 -41 -27 0 -227 121 -254 154
-7 9 -18 16 -23 16 -18 0 58 -93 129 -160 l73 -67 -25 -23 c-31 -29 -31 -51 0
-119 20 -42 23 -56 13 -62 -19 -12 4 -18 112 -28 l95 -8 -85 -3 c-47 -1 -123
-5 -170 -9 -150 -12 680 -24 1105 -16 452 9 617 21 325 25 -110 1 -175 5 -160
10 14 4 55 8 92 9 37 1 78 6 92 12 43 20 96 149 96 236 0 17 18 45 54 83 64
70 101 120 88 120 -5 0 -16 -8 -23 -17 -8 -9 -40 -33 -71 -54 l-57 -37 -56 17
c-58 17 -67 26 -35 36 28 9 162 98 180 120 8 10 11 16 5 14 -5 -3 -48 -23 -95
-46 -140 -67 -130 -70 -130 40 l0 94 -52 29 c-140 77 -274 122 -423 144 -97
13 -275 11 -366 -6z m400 -39 c45 -9 112 -25 149 -37 70 -21 242 -102 252
-118 7 -11 4 -170 -4 -177 -16 -16 -26 17 -26 87 l0 79 -82 40 c-211 100 -438
133 -663 96 -168 -27 -379 -113 -391 -159 -3 -13 -4 -73 -2 -134 2 -67 -1
-113 -7 -114 -15 -5 -26 85 -23 190 l3 97 79 41 c92 48 216 90 319 109 101 18
298 18 396 0z m-2 -100 c88 -17 192 -50 266 -85 46 -22 47 -24 47 -66 0 -24
-2 -44 -5 -44 -2 0 -30 10 -62 23 -54 20 -73 22 -258 21 -225 -1 -242 -5 -424
-90 -77 -36 -207 -74 -253 -74 -5 0 -8 47 -8 105 l0 106 63 28 c184 83 438
113 634 76z m353 -250 c63 -29 129 -56 147 -60 17 -3 36 -12 41 -18 13 -17 15
-167 2 -167 -5 0 -10 8 -10 19 0 10 -9 30 -21 45 -43 55 -102 20 -134 -79 -9
-30 -22 -55 -28 -55 -7 0 -57 -7 -112 -15 -140 -20 -177 -18 -85 6 155 39 147
35 201 109 27 38 62 78 77 90 l27 20 -40 -6 c-79 -13 -212 -46 -317 -80 l-108
-35 -1 -52 -1 -52 -9 40 c-15 67 -41 116 -70 131 -39 20 -53 18 -89 -12 -38
-33 -57 -68 -73 -141 l-14 -58 -124 -8 c-68 -4 -198 -5 -288 -2 -185 6 -187 6
-230 88 l-23 42 25 -30 c62 -75 60 -74 117 -76 121 -6 130 -3 195 56 l60 54
-65 -7 c-99 -11 -240 -7 -289 7 -37 11 -42 15 -30 26 11 11 23 12 54 4 46 -11
169 -11 267 0 37 4 65 4 62 0 -9 -16 15 -17 90 -4 58 10 95 24 140 51 33 21
86 49 116 62 l55 23 -65 -6 c-94 -9 -213 -41 -283 -76 -48 -25 -83 -34 -161
-42 -139 -14 -251 1 -232 32 12 19 100 59 178 81 93 26 250 40 451 40 l158 0
52 39 c142 106 188 108 387 16z m-331 61 c-11 -10 -159 -70 -204 -82 -29 -8
-97 -14 -165 -13 l-115 0 65 30 c130 62 156 67 294 68 71 1 127 -1 125 -3z"/>
<path d="M1503 1434 c-29 -14 -71 -43 -95 -65 l-43 -40 56 5 c31 3 135 9 232
12 97 4 174 10 172 14 -14 22 -212 100 -255 100 -9 0 -39 -12 -67 -26z"/>
<path d="M1140 1203 c-19 -8 -81 -23 -137 -32 -99 -17 -104 -20 -155 -66 -29
-27 -57 -52 -63 -57 -5 -4 73 -8 172 -8 l182 0 11 58 c7 31 18 72 26 90 15 36
13 37 -36 15z"/>
<path d="M697 883 c-10 -9 -8 -95 2 -111 5 -9 29 -12 82 -10 l74 3 3 63 3 62
-79 0 c-43 0 -82 -3 -85 -7z"/>
<path d="M1170 825 c0 -49 3 -65 14 -65 8 0 16 7 20 15 4 11 21 15 59 15 52 0
55 1 60 29 3 15 3 38 0 50 -5 19 -12 21 -79 21 l-74 0 0 -65z"/>
<path d="M351 696 c2 -2 76 -10 164 -16 l160 -13 95 -91 c107 -103 256 -207
375 -261 l79 -36 64 27 c129 55 268 153 417 294 l70 67 160 12 c88 7 162 15
164 17 2 2 -391 4 -874 4 -483 0 -876 -2 -874 -4z m480 -83 c115 -100 348
-253 386 -253 49 0 283 146 385 240 39 35 75 60 84 58 12 -2 -6 -25 -63 -78
-94 -88 -204 -165 -320 -221 l-83 -41 -87 47 c-127 67 -245 149 -327 227 -56
53 -67 67 -50 68 11 0 45 -21 75 -47z m675 -9 c-57 -43 -186 -120 -244 -145
l-43 -19 -72 36 c-73 37 -169 98 -220 141 l-29 23 328 0 327 0 -47 -36z"/>
</g>
</svg>
